<svg
    xmlns="http://www.w3.org/2000/svg"
    width="24" height="24"
    viewBox="0 0 24 24"
    fill="none"
    stroke="currentColor"
    stroke-width="2"
    stroke-linecap="round"
    stroke-linejoin="round"
    class="lucide lucide-badge-icon lucide-badge"
>
    <defs>
        <linearGradient id="gradient" x1="0%" y1="0%" x2="100%" y2="100%">
            <stop offset="0%" stop-color="#FF4B2B"/>
            <stop offset="100%" stop-color="#FF416C"/>
        </linearGradient>
    </defs>
    <path
        stroke="url(#gradient)"
        d="M3.85 8.62a4 4 0 0 1 4.78-4.77 4 4 0 0 1 6.74 0 4 4 0 0 1 4.78 4.78 4 4 0 0 1 0 6.74 4 4 0 0 1-4.77 4.78 4 4 0 0 1-6.75 0 4 4 0 0 1-4.78-4.77 4 4 0 0 1 0-6.76Z"
    />
</svg>