<svg
    xmlns="http://www.w3.org/2000/svg"
    width="24" height="24"
    viewBox="0 0 24 24"
    fill="none"
    stroke="currentColor"
    stroke-width="2"
    stroke-linecap="round"
    stroke-linejoin="round"
>
    <defs>
        <linearGradient id="gradient" x1="0%" y1="0%" x2="100%" y2="100%">
            <stop offset="0%" stop-color="#FF4B2B"/>
            <stop offset="100%" stop-color="#FF416C"/>
        </linearGradient>
    </defs>
    <path
        stroke="url(#gradient)"
        d="M3.85 8.62a4 4 0 0 1 4.78-4.77 4 4 0 0 1 6.74 0 4 4 0 0 1 4.78 4.78 4 4 0 0 1 0 6.74 4 4 0 0 1-4.77 4.78 4 4 0 0 1-6.75 0 4 4 0 0 1-4.78-4.77 4 4 0 0 1 0-6.76Z"
    />
    <!-- Letter R -->
    <path
        fill="url(#gradient)"
        fill-opacity="1"
        fill-rule="evenodd"
        stroke="url(#gradient)"
        stroke-width="0.161049"
        d="m 8.1803059,16.686419 c 0.00224,-0.160041 0.074807,-0.266496 0.261705,-0.383927 C 8.8810541,16.026635 8.8925738,15.917263 8.8956122,11.99586 8.8981665,8.6993974 8.8866606,8.3867277 8.7518978,8.0904164 8.6713277,7.9132623 8.5090612,7.7168997 8.3913055,7.6540552 8.1101827,7.504024 8.0976521,7.1874179 8.3701304,7.1190303 c 0.1061094,-0.026632 1.2203687,-0.034902 2.4761326,-0.018377 2.173392,0.028599 2.306323,0.039196 2.763857,0.2203204 0.646364,0.2558765 1.25239,0.8605373 1.459768,1.4564798 0.219052,0.6294893 0.208153,1.7556105 -0.02189,2.2619675 -0.238927,0.525908 -0.69308,0.99682 -1.20101,1.245327 -0.239625,0.117237 -0.435682,0.246689 -0.435682,0.28767 0,0.08776 1.180082,2.371478 1.616134,3.127575 0.173605,0.301024 0.407599,0.585217 0.550731,0.66888 0.170557,0.09969 0.248874,0.207388 0.248874,0.34223 v 0.196759 h -0.89168 -0.891681 l -0.993009,-2.041831 c -0.558085,-1.147539 -1.052142,-2.064523 -1.128021,-2.09364 -0.239113,-0.09176 -1.132553,-0.0557 -1.279333,0.05162 -0.127633,0.09333 -0.138971,0.246192 -0.116046,1.56461 0.02313,1.330317 0.0404,1.48151 0.192773,1.688239 0.09205,0.124885 0.246055,0.262833 0.34223,0.306551 0.118095,0.05368 0.174864,0.151715 0.174864,0.301968 v 0.222479 H 9.7071718 8.1772041 Z M 12.948423,11.489107 C 13.488724,11.171508 13.688854,10.765679 13.691274,9.9827451 13.693574,9.2239825 13.473087,8.7848767 12.929022,8.4650124 12.60196,8.2727274 12.4706,8.2485876 11.609676,8.2225592 c -0.742468,-0.022447 -0.971613,-0.00445 -1.025455,0.080525 -0.08502,0.1341838 -0.09569,3.3196768 -0.01141,3.4049058 0.03322,0.03359 0.495226,0.04869 1.026688,0.03355 0.886723,-0.02525 0.997805,-0.04604 1.348923,-0.252435 z"
    />
</svg>